HIERARCHY
ROOT Hips
{
  OFFSET 12.5924 87.7646 8.5502
  CHANNELS 6 Xposition Yposition Zposition Zrotation Xrotation Yrotation
  JOINT RightUpLeg
  {
    OFFSET -9.27424 -1.51647 -0.00177081
    CHANNELS 3 Zrotation Xrotation Yrotation
    JOINT RightLeg
    {
      OFFSET -0.0218595 -41.9179 0.0996455
      CHANNELS 3 Zrotation Xrotation Yrotation
      JOINT RightFoot
      {
        OFFSET -0.864559 -41.9626 -0.357059
        CHANNELS 3 Zrotation Xrotation Yrotation
        End Site
        {
          OFFSET 0 -7.69 17.5
        }
      }
    }
  }
  JOINT LeftUpLeg
  {
    OFFSET 9.25718 -1.5867 0.052377
    CHANNELS 3 Zrotation Xrotation Yrotation
    JOINT LeftLeg
    {
      OFFSET 0.0916619 -41.8676 0.000817906
      CHANNELS 3 Zrotation Xrotation Yrotation
      JOINT LeftFoot
      {
        OFFSET -0.467602 -41.8546 0.208385
        CHANNELS 3 Zrotation Xrotation Yrotation
        End Site
        {
          OFFSET 0 -7.69 17.5
        }
      }
    }
  }
  JOINT Spine
  {
    OFFSET 0.0181296 14.2981 0.0454815
    CHANNELS 3 Zrotation Xrotation Yrotation
    JOINT Spine1
    {
      OFFSET 0.0179205 9.71532 0.0144816
      CHANNELS 3 Zrotation Xrotation Yrotation
      JOINT Spine2
      {
        OFFSET 0.0460832 10.1118 -0.00781291
        CHANNELS 3 Zrotation Xrotation Yrotation
        JOINT Spine3
        {
          OFFSET 0.0326005 9.72657 -0.000132442
          CHANNELS 3 Zrotation Xrotation Yrotation
          JOINT Neck
          {
            OFFSET -0.0594321 10.3688 0.0892585
            CHANNELS 3 Zrotation Xrotation Yrotation
            JOINT Head
            {
              OFFSET -0.027184 9.52116 0.11923
              CHANNELS 3 Zrotation Xrotation Yrotation
              End Site
              {
                OFFSET 0 15.95 0
              }
            }
          }
          JOINT RightShoulder
          {
            OFFSET -3.18249 6.94712 0.0315742
            CHANNELS 3 Zrotation Xrotation Yrotation
            JOINT RightArm
            {
              OFFSET -12.6859 -0.0281953 -0.0223312
              CHANNELS 3 Zrotation Xrotation Yrotation
              JOINT RightForeArm
              {
                OFFSET -26.4349 -0.138904 0.103809
                CHANNELS 3 Zrotation Xrotation Yrotation
                JOINT RightHand
                {
                  OFFSET -26.0404 -0.036643 0.02476
                  CHANNELS 3 Zrotation Xrotation Yrotation
                  JOINT RightHandThumb1
                  {
                    OFFSET -2.48905 0.190105 3.12053
                    CHANNELS 3 Zrotation Xrotation Yrotation
                    JOINT RightHandThumb2
                    {
                      OFFSET -3.68274 0 0
                      CHANNELS 3 Zrotation Xrotation Yrotation
                      JOINT RightHandThumb3
                      {
                        OFFSET -2.55832 0 0
                        CHANNELS 3 Zrotation Xrotation Yrotation
                        End Site
                        {
                          OFFSET -2.194 0 0
                        }
                      }
                    }
                  }
                  JOINT RightInHandIndex
                  {
                    OFFSET -3.22368 0.508421 1.97842
                    CHANNELS 3 Zrotation Xrotation Yrotation
                    JOINT RightHandIndex1
                    {
                      OFFSET -5.21684 -0.091368 0.999158
                      CHANNELS 3 Zrotation Xrotation Yrotation
                      JOINT RightHandIndex2
                      {
                        OFFSET -3.61937 0 0
                        CHANNELS 3 Zrotation Xrotation Yrotation
                        JOINT RightHandIndex3
                        {
                          OFFSET -2.0521 0 0
                          CHANNELS 3 Zrotation Xrotation Yrotation
                          End Site
                          {
                            OFFSET -1.805 0 0
                          }
                        }
                      }
                    }
                  }
                  JOINT RightInHandMiddle
                  {
                    OFFSET -3.38211 0.517263 0.756737
                    CHANNELS 3 Zrotation Xrotation Yrotation
                    JOINT RightHandMiddle1
                    {
                      OFFSET -5.17411 -0.084 0.313895
                      CHANNELS 3 Zrotation Xrotation Yrotation
                      JOINT RightHandMiddle2
                      {
                        OFFSET -3.94947 0 0
                        CHANNELS 3 Zrotation Xrotation Yrotation
                        JOINT RightHandMiddle3
                        {
                          OFFSET -2.47579 0 0
                          CHANNELS 3 Zrotation Xrotation Yrotation
                          End Site
                          {
                            OFFSET -1.975 0 0
                          }
                        }
                      }
                    }
                  }
                  JOINT RightInHandRing
                  {
                    OFFSET -3.36516 0.537895 -0.128947
                    CHANNELS 3 Zrotation Xrotation Yrotation
                    JOINT RightHandRing1
                    {
                      OFFSET -4.63474 -0.022105 -0.478947
                      CHANNELS 3 Zrotation Xrotation Yrotation
                      JOINT RightHandRing2
                      {
                        OFFSET -3.44238 0 0
                        CHANNELS 3 Zrotation Xrotation Yrotation
                        JOINT RightHandRing3
                        {
                          OFFSET -2.3881 0 0
                          CHANNELS 3 Zrotation Xrotation Yrotation
                          End Site
                          {
                            OFFSET -1.857 0 0
                          }
                        }
                      }
                    }
                  }
                  JOINT RightInHandPinky
                  {
                    OFFSET -3.16105 0.469368 -1.20179
                    CHANNELS 3 Zrotation Xrotation Yrotation
                    JOINT RightHandPinky1
                    {
                      OFFSET -4.14105 -0.022105 -1.09053
                      CHANNELS 3 Zrotation Xrotation Yrotation
                      JOINT RightHandPinky2
                      {
                        OFFSET -2.75653 0 0
                        CHANNELS 3 Zrotation Xrotation Yrotation
                        JOINT RightHandPinky3
                        {
                          OFFSET -1.74189 0 0
                          CHANNELS 3 Zrotation Xrotation Yrotation
                          End Site
                          {
                            OFFSET -1.645 0 0
                          }
                        }
                      }
                    }
                  }
                }
              }
            }
          }
          JOINT LeftShoulder
          {
            OFFSET 3.21289 6.91298 -0.0113859
            CHANNELS 3 Zrotation Xrotation Yrotation
            JOINT LeftArm
            {
              OFFSET 12.7691 -0.0256594 -0.0399854
              CHANNELS 3 Zrotation Xrotation Yrotation
              JOINT LeftForeArm
              {
                OFFSET 26.4177 -0.0137926 -0.00219879
                CHANNELS 3 Zrotation Xrotation Yrotation
                JOINT LeftHand
                {
                  OFFSET 26.0013 -0.0633708 -0.0119906
                  CHANNELS 3 Zrotation Xrotation Yrotation
                  JOINT LeftHandThumb1
                  {
                    OFFSET 2.48905 0.190105 3.12053
                    CHANNELS 3 Zrotation Xrotation Yrotation
                    JOINT LeftHandThumb2
                    {
                      OFFSET 3.68274 0 0
                      CHANNELS 3 Zrotation Xrotation Yrotation
                      JOINT LeftHandThumb3
                      {
                        OFFSET 2.55832 0 0
                        CHANNELS 3 Zrotation Xrotation Yrotation
                        End Site
                        {
                          OFFSET 2.194 0 0
                        }
                      }
                    }
                  }
                  JOINT LeftInHandIndex
                  {
                    OFFSET 3.22368 0.508421 1.97842
                    CHANNELS 3 Zrotation Xrotation Yrotation
                    JOINT LeftHandIndex1
                    {
                      OFFSET 5.21684 -0.091368 0.999158
                      CHANNELS 3 Zrotation Xrotation Yrotation
                      JOINT LeftHandIndex2
                      {
                        OFFSET 3.61937 0 0
                        CHANNELS 3 Zrotation Xrotation Yrotation
                        JOINT LeftHandIndex3
                        {
                          OFFSET 2.0521 0 0
                          CHANNELS 3 Zrotation Xrotation Yrotation
                          End Site
                          {
                            OFFSET 1.805 0 0
                          }
                        }
                      }
                    }
                  }
                  JOINT LeftInHandMiddle
                  {
                    OFFSET 3.38211 0.517263 0.756737
                    CHANNELS 3 Zrotation Xrotation Yrotation
                    JOINT LeftHandMiddle1
                    {
                      OFFSET 5.17411 -0.084 0.313895
                      CHANNELS 3 Zrotation Xrotation Yrotation
                      JOINT LeftHandMiddle2
                      {
                        OFFSET 3.94947 0 0
                        CHANNELS 3 Zrotation Xrotation Yrotation
                        JOINT LeftHandMiddle3
                        {
                          OFFSET 2.47579 0 0
                          CHANNELS 3 Zrotation Xrotation Yrotation
                          End Site
                          {
                            OFFSET 1.975 0 0
                          }
                        }
                      }
                    }
                  }
                  JOINT LeftInHandRing
                  {
                    OFFSET 3.36516 0.537895 -0.128947
                    CHANNELS 3 Zrotation Xrotation Yrotation
                    JOINT LeftHandRing1
                    {
                      OFFSET 4.63474 -0.022105 -0.478947
                      CHANNELS 3 Zrotation Xrotation Yrotation
                      JOINT LeftHandRing2
                      {
                        OFFSET 3.44238 0 0
                        CHANNELS 3 Zrotation Xrotation Yrotation
                        JOINT LeftHandRing3
                        {
                          OFFSET 2.3881 0 0
                          CHANNELS 3 Zrotation Xrotation Yrotation
                          End Site
                          {
                            OFFSET 1.857 0 0
                          }
                        }
                      }
                    }
                  }
                  JOINT LeftInHandPinky
                  {
                    OFFSET 3.16105 0.469368 -1.20179
                    CHANNELS 3 Zrotation Xrotation Yrotation
                    JOINT LeftHandPinky1
                    {
                      OFFSET 4.14105 -0.022105 -1.09053
                      CHANNELS 3 Zrotation Xrotation Yrotation
                      JOINT LeftHandPinky2
                      {
                        OFFSET 2.75653 0 0
                        CHANNELS 3 Zrotation Xrotation Yrotation
                        JOINT LeftHandPinky3
                        {
                          OFFSET 1.74189 0 0
                          CHANNELS 3 Zrotation Xrotation Yrotation
                          End Site
                          {
                            OFFSET 1.645 0 0
                          }
                        }
                      }
                    }
                  }
                }
              }
            }
          }
        }
      }
    }
  }
}
MOTION
Frames:	6
Frame Time:	0.00833333
16.6429 88.0221 7.66904 24.4611 -12.824 -123.614 -5.12772 -57.9356 10.0189 6.86315 32.718 -15.5248 5.0269 -4.23923 28.5427 15.5742 -55.7101 6.41582 5.70665 32.8227 7.07561 -11.3235 -1.47251 0.302287 0.249605 14.6576 2.40628 0.116051 3.73959 0.662594 0.170197 6.14769 1.15226 -0.611994 0.839245 -0.408444 -0.613929 0.838866 -0.422664 -10.3111 14.3626 -8.63618 4.23315 -0.777071 6.37233 62.5698 21.2129 60.8954 3.31807 -32.4301 -1.235 12.3541 -28.4655 7.2618 28.184 10.7294 19.1592 -4.84443e-15 0 -10 -6.3916e-15 9.54166e-15 -10 -7.95139e-16 -6.36111e-15 4.77083e-15 19.9818 0.871897 2.3964 24 0 -6.36111e-15 20 1.2921e-15 9.54166e-15 -7.95139e-16 -6.36111e-15 4.77083e-15 20 0 9.54166e-15 24 -7.95139e-15 3.18055e-15 20 2.18663e-15 6.36111e-15 -7.95139e-16 -6.36111e-15 4.77083e-15 19.9748 -1.02565 -2.81938 24 1.59028e-15 -6.36111e-15 20 -3.18055e-15 -1.27222e-14 -7.95139e-16 -6.36111e-15 4.77083e-15 19.7815 -3.00948 -8.30515 24 -1.98785e-15 -0 20 -3.97569e-15 -3.18055e-15 -14.1353 -11.4553 -12.1788 -34.9553 49.816 -61.3592 -27.9533 -72.9006 -34.8683 -22.3891 -72.4786 -31.8651 -28.184 10.7294 -19.1592 -5.60818e-16 3.18055e-15 10 -3.22962e-15 0 10 0 0 -3.18055e-15 -19.9818 0.871897 -2.3964 -24 0 -0 -20 1.49089e-15 3.18055e-15 0 0 -3.18055e-15 -20 3.18055e-15 -3.18055e-15 -24 4.77083e-15 -0 -20 1.39149e-15 3.18055e-15 0 0 -3.18055e-15 -19.9748 -1.02565 2.81938 -24 -7.95139e-16 -6.36111e-15 -20 5.96354e-15 9.54166e-15 0 0 -3.18055e-15 -19.7815 -3.00948 8.30515 -24 -2.38542e-15 -0 -20 0 9.54166e-15 
16.6143 88.0215 7.66672 24.3961 -12.8428 -123.804 -4.87299 -57.9051 10.2701 6.77059 32.6978 -15.4196 5.03879 -4.19839 28.5633 15.7915 -55.6096 6.60206 5.61891 32.8957 7.13713 -11.3411 -1.55735 0.359796 0.240361 14.6781 2.36474 0.114023 3.74417 0.650843 0.165396 6.15348 1.13171 -0.617414 0.838516 -0.401409 -0.619398 0.838902 -0.415622 -10.4269 14.3764 -8.49828 4.11968 -0.817191 6.27355 62.5503 20.9883 60.6957 3.92197 -32.5528 -0.326735 12.1203 -28.4218 7.0801 28.184 10.7294 19.1592 7.51323e-15 -3.18055e-15 -10 9.68886e-15 0 -10 2.38542e-15 3.18055e-15 -4.77083e-15 19.9818 0.871897 2.3964 24 4.77083e-15 3.18055e-15 20 -9.93923e-17 9.54166e-15 2.38542e-15 3.18055e-15 -4.77083e-15 20 0 -0 24 -4.77083e-15 -3.18055e-15 20 7.95139e-16 -6.36111e-15 2.38542e-15 3.18055e-15 -4.77083e-15 19.9748 -1.02565 -2.81938 24 -5.56597e-15 -0 20 2.38542e-15 -3.18055e-15 2.38542e-15 3.18055e-15 -4.77083e-15 19.7815 -3.00948 -8.30515 24 1.07344e-14 6.36111e-15 20 3.97569e-15 -0 -14.0968 -11.5578 -12.1405 -35.3623 49.7231 -61.0039 -26.5248 -72.0177 -33.7243 -21.2437 -72.7652 -31.0657 -28.184 10.7294 -19.1592 -3.79044e-15 3.18055e-15 10 -1.08105e-14 6.36111e-15 10 -3.18055e-15 -3.18055e-15 1.59028e-15 -19.9818 0.871897 -2.3964 -24 -3.18055e-15 3.18055e-15 -20 1.83876e-15 -6.36111e-15 -3.18055e-15 -3.18055e-15 1.59028e-15 -20 -3.18055e-15 6.36111e-15 -24 4.77083e-15 3.18055e-15 -20 2.78299e-15 -0 -3.18055e-15 -3.18055e-15 1.59028e-15 -19.9748 -1.02565 2.81938 -24 1.59028e-15 9.54166e-15 -20 3.97569e-15 3.18055e-15 -3.18055e-15 -3.18055e-15 1.59028e-15 -19.7815 -3.00948 8.30515 -24 0 -3.18055e-15 -20 -2.38542e-15 3.18055e-15 
16.5841 88.0208 7.66303 24.3302 -12.8552 -123.993 -4.6058 -57.8695 10.5111 6.66229 32.6818 -15.2975 5.06399 -4.14561 28.5899 15.9876 -55.5037 6.74462 5.53044 32.9728 7.23879 -11.3604 -1.64044 0.40669 0.234484 14.694 2.31188 0.110222 3.74558 0.636255 0.161602 6.15693 1.1063 -0.622741 0.837869 -0.394063 -0.624774 0.838938 -0.408267 -10.5406 14.4068 -8.35572 4.00697 -0.845388 6.15881 62.4765 20.7667 60.4918 4.6217 -32.7676 0.709722 11.8886 -28.3873 6.90403 28.184 10.7294 19.1592 7.82746e-15 3.18055e-15 -10 7.51323e-15 -3.18055e-15 -10 3.18055e-15 9.54166e-15 -1.59028e-15 19.9818 0.871897 2.3964 24 0 -3.18055e-15 20 1.39149e-15 9.54166e-15 3.18055e-15 9.54166e-15 -1.59028e-15 20 3.18055e-15 1.59028e-14 24 -1.59028e-15 -9.54166e-15 20 -9.93923e-16 -0 3.18055e-15 9.54166e-15 -1.59028e-15 19.9748 -1.02565 -2.81938 24 7.95139e-15 -3.18055e-15 20 2.78299e-15 6.36111e-15 3.18055e-15 9.54166e-15 -1.59028e-15 19.7815 -3.00948 -8.30515 24 -1.98785e-15 1.59028e-14 20 -7.95139e-16 -6.36111e-15 -14.0424 -11.6518 -12.107 -34.9543 49.8229 -61.4106 -26.5667 -72.2899 -33.8017 -19.8404 -72.3159 -29.925 -28.184 10.7294 -19.1592 1.76953e-14 9.54166e-15 10 5.89842e-15 3.18055e-15 10 2.64834e-31 -3.18055e-15 4.77083e-15 -19.9818 0.871897 -2.3964 -24 6.36111e-15 3.18055e-15 -20 6.16232e-15 6.36111e-15 2.64834e-31 -3.18055e-15 4.77083e-15 -20 3.18055e-15 -0 -24 1.59028e-15 3.18055e-15 -20 2.68359e-15 1.27222e-14 2.64834e-31 -3.18055e-15 4.77083e-15 -19.9748 -1.02565 2.81938 -24 0 6.36111e-15 -20 -3.97569e-16 -3.18055e-15 2.64834e-31 -3.18055e-15 4.77083e-15 -19.7815 -3.00948 8.30515 -24 7.15625e-15 -0 -20 -2.38542e-15 -0 
16.5539 88.02 7.65081 24.2574 -12.869 -124.196 -4.318 -57.8342 10.7614 6.54179 32.6724 -15.1518 5.08189 -4.10051 28.6139 16.2227 -55.3861 6.92819 5.42715 33.0515 7.36051 -11.3842 -1.72284 0.432449 0.223371 14.7109 2.26017 0.106734 3.74644 0.621612 0.155763 6.15962 1.08066 -0.628876 0.837341 -0.386675 -0.630963 0.838976 -0.400897 -10.6697 14.4379 -8.21306 3.90214 -0.869968 6.02485 62.3502 20.5523 60.2938 5.39967 -33.0886 1.86087 11.6427 -28.3471 6.71766 28.184 10.7294 19.1592 6.45924e-15 0 -10 6.45924e-15 0 -10 7.15625e-15 -3.18055e-15 -1.59028e-15 19.9818 0.871897 2.3964 24 -4.77083e-15 -6.36111e-15 20 -5.96354e-16 6.36111e-15 7.15625e-15 -3.18055e-15 -1.59028e-15 20 3.18055e-15 -6.36111e-15 24 -1.59028e-15 -3.18055e-15 20 0 -3.18055e-15 7.15625e-15 -3.18055e-15 -1.59028e-15 19.9748 -1.02565 -2.81938 24 0 3.18055e-15 20 0 -3.18055e-15 7.15625e-15 -3.18055e-15 -1.59028e-15 19.7815 -3.00948 -8.30515 24 -3.57812e-15 1.27222e-14 20 7.95139e-16 -1.59028e-14 -13.9637 -11.7666 -12.0905 -35.2182 49.8868 -61.1237 -26.9443 -72.5224 -34.267 -18.3816 -71.3546 -28.6757 -28.184 10.7294 -19.1592 -2.73645e-15 6.36111e-15 10 -8.56722e-15 -6.36111e-15 10 -1.59028e-15 3.18055e-15 -4.77083e-15 -19.9818 0.871897 -2.3964 -24 0 -9.54166e-15 -20 -1.59028e-15 -9.54166e-15 -1.59028e-15 3.18055e-15 -4.77083e-15 -20 3.18055e-15 -3.18055e-15 -24 4.77083e-15 -0 -20 1.59028e-15 -3.18055e-15 -1.59028e-15 3.18055e-15 -4.77083e-15 -19.9748 -1.02565 2.81938 -24 4.77083e-15 -1.27222e-14 -20 7.95139e-15 -9.54166e-15 -1.59028e-15 3.18055e-15 -4.77083e-15 -19.7815 -3.00948 8.30515 -24 -1.59028e-15 3.18055e-15 -20 4.77083e-15 3.18055e-15 
16.5431 88.0191 7.65441 24.1865 -12.8823 -124.41 -4.0401 -57.8002 11.1158 6.50634 32.6501 -15.1282 5.09375 -4.06278 28.6288 16.4975 -55.2627 7.1614 5.30888 33.1347 7.49384 -11.4071 -1.80914 0.431487 0.219397 14.7239 2.19487 0.105973 3.7471 0.603781 0.152133 6.16161 1.04969 -0.6353 0.838221 -0.378682 -0.63746 0.839015 -0.392928 -10.8055 14.4773 -8.05925 3.7891 -0.91841 5.87873 62.2099 20.3612 60.0861 6.22395 -33.4889 3.10261 11.3624 -28.2878 6.50296 28.184 10.7294 19.1592 -1.50941e-14 -3.18055e-15 -10 0 0 -10 -3.97569e-15 0 1.59028e-15 19.9818 0.871897 2.3964 24 -6.36111e-15 9.54166e-15 20 3.37934e-15 6.36111e-15 -3.97569e-15 0 1.59028e-15 20 3.18055e-15 -3.18055e-15 24 0 3.18055e-15 20 -1.98785e-15 -6.36111e-15 -3.97569e-15 0 1.59028e-15 19.9748 -1.02565 -2.81938 24 1.59028e-15 -0 20 3.18055e-15 9.54166e-15 -3.97569e-15 0 1.59028e-15 19.7815 -3.00948 -8.30515 24 4.77083e-15 6.36111e-15 20 3.97569e-15 1.27222e-14 -13.8701 -11.9207 -12.0664 -29.9165 49.3666 -67.2272 -26.592 -75.6483 -32.0157 -16.9824 -71.1011 -27.652 -28.184 10.7294 -19.1592 7.58087e-15 -6.36111e-15 10 5.60818e-16 -3.18055e-15 10 8.82781e-32 -3.18055e-15 1.59028e-15 -19.9818 0.871897 -2.3964 -24 6.36111e-15 9.54166e-15 -20 5.96354e-16 -3.18055e-15 8.82781e-32 -3.18055e-15 1.59028e-15 -20 3.18055e-15 -0 -24 4.77083e-15 -3.18055e-15 -20 -2.06239e-15 -0 8.82781e-32 -3.18055e-15 1.59028e-15 -19.9748 -1.02565 2.81938 -24 7.95139e-15 1.27222e-14 -20 1.98785e-15 -3.18055e-15 8.82781e-32 -3.18055e-15 1.59028e-15 -19.7815 -3.00948 8.30515 -24 -1.27222e-14 -6.36111e-15 -20 -3.97569e-15 6.36111e-15 
16.5343 88.0181 7.66178 24.1214 -12.8903 -124.636 -3.74497 -57.7668 11.5276 6.50063 32.6152 -15.1436 5.10534 -4.01961 28.6367 16.7682 -55.1574 7.39064 5.20221 33.2392 7.64508 -11.4216 -1.89302 0.425353 0.2299 14.7267 2.11133 0.106661 3.7475 0.581978 0.154562 6.15834 1.01217 -0.64329 0.839661 -0.369274 -0.645535 0.839055 -0.383564 -10.9732 14.5285 -7.87909 3.67816 -0.988803 5.72613 62.0862 20.1815 59.8496 7.06315 -33.9252 4.41242 11.037 -28.2143 6.25952 28.184 10.7294 19.1592 3.54385e-15 6.36111e-15 -10 2.73645e-15 6.36111e-15 -10 7.95139e-16 3.18055e-15 -1.59028e-15 19.9818 0.871897 2.3964 24 0 -3.18055e-15 20 -2.78299e-15 -9.54166e-15 7.95139e-16 3.18055e-15 -1.59028e-15 20 -3.18055e-15 -6.36111e-15 24 1.59028e-15 3.18055e-15 20 -3.47873e-16 -0 7.95139e-16 3.18055e-15 -1.59028e-15 19.9748 -1.02565 -2.81938 24 7.95139e-16 -3.18055e-15 20 -3.97569e-16 -6.36111e-15 7.95139e-16 3.18055e-15 -1.59028e-15 19.7815 -3.00948 -8.30515 24 -7.95139e-16 -6.36111e-15 20 0 -3.18055e-15 -13.7596 -12.0911 -12.0144 -28.542 48.9423 -68.893 -25.5909 -76.1047 -30.4838 -15.5494 -70.8683 -26.6459 -28.184 10.7294 -19.1592 1.08105e-14 -6.36111e-15 10 2.24327e-15 -1.27222e-14 10 -3.18055e-15 -3.18055e-15 -1.59028e-15 -19.9818 0.871897 -2.3964 -24 -6.36111e-15 3.18055e-15 -20 -2.18663e-15 -0 -3.18055e-15 -3.18055e-15 -1.59028e-15 -20 0 -6.36111e-15 -24 1.59028e-15 3.18055e-15 -20 4.94477e-15 -3.18055e-15 -3.18055e-15 -3.18055e-15 -1.59028e-15 -19.9748 -1.02565 2.81938 -24 1.59028e-15 -3.18055e-15 -20 2.78299e-15 -0 -3.18055e-15 -3.18055e-15 -1.59028e-15 -19.7815 -3.00948 8.30515 -24 9.54166e-15 -6.36111e-15 -20 1.98785e-15 -6.36111e-15 
